<svg width="439mm" height="177mm" version="1.1" viewBox="0 0 439 177" xmlns="http://www.w3.org/2000/svg" xmlns:xlink="http://www.w3.org/1999/xlink">
 <defs><linearGradient id="e"><stop stop-color="#7ad" offset="0"/><stop stop-color="#fff" offset=".5"/><stop stop-color="#7ad" offset="1"/></linearGradient>
 <linearGradient id="k" x1="188" x2="188" y1="160" y2="166" gradientTransform="translate(9.6 .9)" gradientUnits="userSpaceOnUse" xlink:href="#e"/>
 <linearGradient id="h" x1="193" x2="202" y1="168" y2="168" gradientTransform="translate(.0046 .097)" gradientUnits="userSpaceOnUse" xlink:href="#e"/></defs>
 <rect width="439.4" height="177.1" fill="#fff"/><path id="f" d="m39.3 59.2c-3.4-17.3 20.6-27.4 39-18.7 2.5-11.2 44.5-22.3 63.2-1.6 15.8-3.7 39 7.7 25.1 19.8 8.4 5 19.3 12.4 5.1 21.5 7.4 19.1-11 33-31.5 29.3-33.1 15.7-60.6 .9-67.9-5.9-16.2 1.9-38.4 3.5-39.3-15.5-19.1-9.2-8.6-26.1 6.3-28.9z" fill="#eee" stroke="#699"/><use transform="translate(225.2 1.7)" xlink:href="#f"/>
 <g id="a" transform="translate(121.2-64.5)"><use transform="translate(-5.5-9)" xlink:href="#j"/>
 <g id="j" stroke-width=".5" fill="none"><path d="m-90.3 206.1-3.1-2.54v-9.6l1.5-1c3.1 1.64 6.174 3.36 9 5.5v6c7.5 8.9-9.8 9-7.4 1.7z" fill="#eee" stroke="#000"/><path d="m-84.1 209 .5-.48v-9.6c-2.8-2.3-5.8-4.1-9-5.4" stroke="#999"/><path d="m-84.2 209.1v-9.8c-2.5-2-5.6-4.2-9.1-5.3l-.2 9.6c2.2 1.8 4.3 3.6 9.3 5.5z" fill="#eee" stroke="#444"/><path d="m-92.2 203.5v-8.2c2.2 .6 4.7 2 7.2 4.1v8.5c-2.2-1-4.5-2.4-7.2-4.4z" fill="#dee" stroke="#666"/><path d="m-102.4 209.2 3.8-2.6 8.5 5v1.25l-3.5 2.1-8.8-4.7z" stroke="#000"/><path d="m-101.1 209.5c.2-.2 3.3-2.1 3.3-2.1m-2.3 2.4c.2-.2 3.3-2.1 3.3-2.1m-2.6 2.5c.2-.2 3.3-2.1 3.3-2.1m-2.5 2.5c.2-.2 3.3-2.1 3.3-2.1m-2.4 2.5c.2-.2 3.3-2.1 3.3-2.1m-2.3 2.6c.2-.23 3.3-2.1 3.3-2.1m-2.4 2.5c.2-.2 3.3-2.1 3.3-2.1m-2.4 2.6c.2-.2 3.3-2.1 3.3-2.1m-2.4 2.6c.2-.2 3.3-2.1 3.3-2.1m-10.4-2.6 8.3 4.7m-7.7-5.2 8.2 4.7m-7.5-5.2 8.3 4.8m-7.6-5.2c.1 0 8.2 4.8 8.2 4.8" stroke="#999" stroke-width=".3"/><path d="m-93.6 214.7v-.9m-8.6-4.7 8.6 4.7 3.5-2.2" stroke="#666"/></g></g>
 <use transform="translate(-5.3-112.5)" xlink:href="#a"/><use transform="translate(80.4 16.6)" xlink:href="#a"/><use transform="translate(160.5-112.8)" xlink:href="#a"/><use transform="translate(160.4-.3)" xlink:href="#a"/><use transform="translate(387.9-107.4)" xlink:href="#a"/><use transform="translate(389.5 3.7)" xlink:href="#a"/><use transform="translate(308.3 20.3)" xlink:href="#a"/><use transform="translate(227.5 3.7)" xlink:href="#a"/><use transform="translate(222.2-112.3)" xlink:href="#a"/>
 <g id="d" transform="translate(101.6-64.5)">
 <g fill="none" stroke-width=".3">
 <g stroke="#444"><path d="m180.7 168.1v-21.4l15.6-8.4 9.4 5.1v21.1l-15.2 8.55c-4-.5-6.94-2.7-9.8-4.9z" fill="#f94"/><path d="m182.3 152.9 6.6 3.4 0 1.7"/><path d="m182 151.1c2.1 1.7 4.6 3 7 3.7 0 0 .1-.9 0-.9-.9-.2-6.9-3.3-6.9-3.8z" fill="#666"/>
 <path d="m185.1 159.4c1.1 .6 .5 2.3 0 2.1-1.2-.4-.8-2.5 0-2.1"/></g>
 <g stroke="#fff"><path d="m180.7 146.7 9.6 5 .2 21.4"/><path d="m190.3 151.6 15.5-8.2" fill="#f83"/><path d="m188.9 158-6.6-3.4v-1.7"/></g></g>
 <g id="i" stroke="#444" stroke-width=".3"><ellipse cx="197.9" cy="163.2" rx="4.2" ry="2.1" fill="url(#k)"/><path d="m193.6 163.2c0 1.2 1.9 2.1 4.2 2.1s4.2-.9 4.2-2.1v7.5c0 1.2-1.9 2.1-4.2 2.1s-4.2-.9-4.2-2.1v-7.5" fill="url(#h)"/></g></g>
 <g transform="translate(-85.62-82.88)" fill="#cb8" stroke-width=".3">
 <g stroke="#444"><path d="m180.7 168.1v-21.4l15.6-8.4 9.4 5.1v21.1l-15.2 8.6c-4-.5-6.9-2.6-9.8-4.9"/><path d="m182.3 152.9 6.6 3.4-.1 1.7"/><path d="m182 151.1c2.1 1.7 4.6 3 7 3.7 0 0 .1-.9 0-.9-.9-.2-7-3.3-7-3.8z" fill="#888"/><path d="m185.1 159.4c1.1 .6 .5 2.3 0 2.1-1.2-.4-.8-2.5 0-2.1"/></g>
 <g stroke="#fff"><path d="m180.7 146.7 9.6 4.9 .23 21.37" fill="none"/><path d="m190.3 151.6 15.5-8.2"/><path d="m188.9 16-6.6-3.4v-1.7"/></g></g>
 <use transform="translate(-85-81.5)" xlink:href="#i"/><use transform="translate(0-50.3)" xlink:href="#d"/><use transform="translate(73.7-50)" xlink:href="#d"/><use transform="translate(37.4 14.2)" xlink:href="#d"/><use transform="translate(72.6 3.3)" xlink:href="#d"/><path id="c" d="m107.2 133.5-3-9 3 2 3-2z" fill="#39a"/><path id="b" d="m331.6 137-3-9 3 2 3-2z" fill="#f82"/><use transform="rotate(120 99.9 62.9)" xlink:href="#c"/><use transform="rotate(240 113 64.2)" xlink:href="#c"/><use transform="rotate(60 82 67.1)" xlink:href="#c"/><use transform="rotate(-60 135.1 70.4)" xlink:href="#c"/><use transform="rotate(45 311.2 49)" xlink:href="#b"/><use transform="rotate(105 336.8 60.1)" xlink:href="#b"/><use transform="rotate(240 336.4 65.5)" xlink:href="#b"/><use transform="rotate(-60 363.1 68.5)" xlink:href="#b"/><g transform="translate(5.7 4.5)" stroke="#39a" stroke-dasharray="3"><path d="m35.5 33 47 27.1"/><path d="m164.1 33.6-46.1 26.6"/>
 <path d="m164.1 118.1-51.7-29.9"/><path d="m101.5 122v-34"/><path d="M 37.4 114.1 86.2 86"/></g>
 <g transform="translate(-13.9 4.5)" stroke="#f82"><path d="m282.2 116.2 14.4-14.4"/><path d="m345.5 125.5-.15-7.3"/><path d="m414.5 122-23.4-13.5"/><path d="m408.6 33-10.78 6.2"/><path d="m284.5 32.5 10.8 2.9"/></g>
 <rect id="g" x="2.5" y="2.5" width="209" height="172" ry="15" fill="none" stroke="#000"/><use transform="translate(225)" xlink:href="#g"/></svg>